<svg width="980" height="980" viewBox="0 0 980 980" fill="none" xmlns="http://www.w3.org/2000/svg">
<path d="M40 42C40 40.8954 40.8954 40 42 40H938C939.105 40 940 40.8954 940 42V938C940 939.105 939.105 940 938 940H42C40.8954 940 40 939.105 40 938V42Z" fill="white"/>
<path d="M356 392C356 390.895 356.895 390 358 390H654C655.105 390 656 390.895 656 392V688C656 689.105 655.105 690 654 690H358C356.895 690 356 689.105 356 688V392Z" fill="white"/>
<line x1="340" y1="932" x2="640" y2="932" stroke="#2F6E4D" stroke-width="16"/>
<line x1="932" y1="640" x2="932" y2="340" stroke="#2F6E4D" stroke-width="16"/>
<line x1="48" y1="340" x2="48" y2="274.18" stroke="#2F6E4D" stroke-width="16"/>
<line x1="87.9554" y1="282.411" x2="42.2305" y2="282.411" stroke="#2F6E4D" stroke-width="16"/>
<line x1="85.7249" y1="237.145" x2="40" y2="237.145" stroke="#2F6E4D" stroke-width="16"/>
<line x1="99.9926" y1="166.091" x2="42" y2="166.091" stroke="#2F6E4D" stroke-width="16"/>
<line x1="170" y1="48" x2="115" y2="48" stroke="#2F6E4D" stroke-width="16"/>
<line x1="100.223" y1="48" x2="42.2305" y2="48" stroke="#2F6E4D" stroke-width="16"/>
<line x1="241" y1="48" x2="185" y2="48" stroke="#2F6E4D" stroke-width="16"/>
<line x1="283.993" y1="76.0216" x2="226" y2="76.0216" stroke="#2F6E4D" stroke-width="16"/>
<line x1="234" y1="83.8799" x2="234" y2="40" stroke="#2F6E4D" stroke-width="16"/>
<line x1="191.48" y1="130.069" x2="191.48" y2="40" stroke="#2F6E4D" stroke-width="16"/>
<line x1="162.483" y1="100.046" x2="162.483" y2="40" stroke="#2F6E4D" stroke-width="16"/>
<line x1="122.335" y1="100.046" x2="122.335" y2="40" stroke="#2F6E4D" stroke-width="16"/>
<line x1="97.7993" y1="100.046" x2="97.7993" y2="40" stroke="#2F6E4D" stroke-width="16"/>
<line x1="49.8439" y1="173.949" x2="49.8439" y2="113.903" stroke="#2F6E4D" stroke-width="16"/>
<line x1="48" y1="244.157" x2="48" y2="184.111" stroke="#2F6E4D" stroke-width="16"/>
<line x1="79.9554" y1="289.423" x2="79.9554" y2="229.376" stroke="#2F6E4D" stroke-width="16"/>
<line x1="92.2231" y1="172.794" x2="92.2231" y2="100.046" stroke="#2F6E4D" stroke-width="16"/>
<line x1="122" y1="200.123" x2="122" y2="97.0439" stroke="#2F6E4D" stroke-width="16"/>
<line x1="48" y1="100.046" x2="48" y2="40" stroke="#2F6E4D" stroke-width="16"/>
<line x1="276" y1="83.8799" x2="276" y2="40" stroke="#2F6E4D" stroke-width="16"/>
<line x1="340" y1="48" x2="268.625" y2="48" stroke="#2F6E4D" stroke-width="16"/>
<line x1="130" y1="192.111" x2="42" y2="192.111" stroke="#2F6E4D" stroke-width="16"/>
<line x1="199.48" y1="121.903" x2="42.2305" y2="121.903" stroke="#2F6E4D" stroke-width="16"/>
<line x1="170.483" y1="90.7252" x2="42.2305" y2="90.7252" stroke="#2F6E4D" stroke-width="16"/>
<line x1="165.677" y1="92.0339" x2="43" y2="92.0339" stroke="#2F6E4D" stroke-width="16"/>
<line x1="340" y1="932" x2="274.18" y2="932" stroke="#2F6E4D" stroke-width="16"/>
<line x1="282.411" y1="892.045" x2="282.411" y2="937.77" stroke="#2F6E4D" stroke-width="16"/>
<line x1="237.145" y1="894.275" x2="237.145" y2="940" stroke="#2F6E4D" stroke-width="16"/>
<line x1="166.091" y1="880.007" x2="166.091" y2="938" stroke="#2F6E4D" stroke-width="16"/>
<line x1="48" y1="810" x2="48" y2="865" stroke="#2F6E4D" stroke-width="16"/>
<line x1="48" y1="879.777" x2="48" y2="937.77" stroke="#2F6E4D" stroke-width="16"/>
<line x1="48" y1="739" x2="48" y2="795" stroke="#2F6E4D" stroke-width="16"/>
<line x1="76.0215" y1="696.007" x2="76.0215" y2="754" stroke="#2F6E4D" stroke-width="16"/>
<line x1="83.8799" y1="746" x2="40" y2="746" stroke="#2F6E4D" stroke-width="16"/>
<line x1="130.069" y1="788.52" x2="40" y2="788.52" stroke="#2F6E4D" stroke-width="16"/>
<line x1="100.046" y1="817.517" x2="40" y2="817.517" stroke="#2F6E4D" stroke-width="16"/>
<line x1="100.046" y1="857.665" x2="40" y2="857.665" stroke="#2F6E4D" stroke-width="16"/>
<line x1="100.046" y1="882.201" x2="40" y2="882.201" stroke="#2F6E4D" stroke-width="16"/>
<line x1="173.949" y1="930.156" x2="113.903" y2="930.156" stroke="#2F6E4D" stroke-width="16"/>
<line x1="244.157" y1="932" x2="184.111" y2="932" stroke="#2F6E4D" stroke-width="16"/>
<line x1="289.423" y1="900.045" x2="229.376" y2="900.045" stroke="#2F6E4D" stroke-width="16"/>
<line x1="172.794" y1="887.777" x2="100.046" y2="887.777" stroke="#2F6E4D" stroke-width="16"/>
<line x1="200.123" y1="858" x2="97.0439" y2="858" stroke="#2F6E4D" stroke-width="16"/>
<line x1="48" y1="640" x2="48" y2="340" stroke="#2F6E4D" stroke-width="16"/>
<line x1="100.046" y1="932" x2="40" y2="932" stroke="#2F6E4D" stroke-width="16"/>
<line x1="83.8799" y1="704" x2="40" y2="704" stroke="#2F6E4D" stroke-width="16"/>
<line x1="48" y1="640" x2="48" y2="711.375" stroke="#2F6E4D" stroke-width="16"/>
<line x1="192.111" y1="850" x2="192.111" y2="938" stroke="#2F6E4D" stroke-width="16"/>
<line x1="121.903" y1="780.52" x2="121.903" y2="937.77" stroke="#2F6E4D" stroke-width="16"/>
<line x1="90.7252" y1="809.517" x2="90.7252" y2="937.77" stroke="#2F6E4D" stroke-width="16"/>
<line x1="92.0339" y1="814.323" x2="92.0339" y2="937" stroke="#2F6E4D" stroke-width="16"/>
<line x1="640" y1="48" x2="705.82" y2="48" stroke="#2F6E4D" stroke-width="16"/>
<line x1="697.589" y1="87.9554" x2="697.589" y2="42.2305" stroke="#2F6E4D" stroke-width="16"/>
<line x1="742.854" y1="85.7249" x2="742.854" y2="40" stroke="#2F6E4D" stroke-width="16"/>
<line x1="813.909" y1="99.9926" x2="813.909" y2="42" stroke="#2F6E4D" stroke-width="16"/>
<line x1="932" y1="170" x2="932" y2="115" stroke="#2F6E4D" stroke-width="16"/>
<line x1="932" y1="100.223" x2="932" y2="42.2305" stroke="#2F6E4D" stroke-width="16"/>
<line x1="932" y1="241" x2="932" y2="185" stroke="#2F6E4D" stroke-width="16"/>
<line x1="903.978" y1="283.993" x2="903.978" y2="226" stroke="#2F6E4D" stroke-width="16"/>
<line x1="896.12" y1="234" x2="940" y2="234" stroke="#2F6E4D" stroke-width="16"/>
<line x1="849.931" y1="191.48" x2="940" y2="191.48" stroke="#2F6E4D" stroke-width="16"/>
<line x1="879.954" y1="162.483" x2="940" y2="162.483" stroke="#2F6E4D" stroke-width="16"/>
<line x1="879.954" y1="122.335" x2="940" y2="122.335" stroke="#2F6E4D" stroke-width="16"/>
<line x1="879.954" y1="97.7993" x2="940" y2="97.7993" stroke="#2F6E4D" stroke-width="16"/>
<line x1="806.051" y1="49.8439" x2="866.097" y2="49.8439" stroke="#2F6E4D" stroke-width="16"/>
<line x1="735.843" y1="48" x2="795.889" y2="48" stroke="#2F6E4D" stroke-width="16"/>
<line x1="690.577" y1="79.9554" x2="750.624" y2="79.9554" stroke="#2F6E4D" stroke-width="16"/>
<line x1="807.206" y1="92.2231" x2="879.954" y2="92.2231" stroke="#2F6E4D" stroke-width="16"/>
<line x1="779.877" y1="122" x2="882.956" y2="122" stroke="#2F6E4D" stroke-width="16"/>
<line x1="879.954" y1="48" x2="940" y2="48" stroke="#2F6E4D" stroke-width="16"/>
<line x1="896.12" y1="276" x2="940" y2="276" stroke="#2F6E4D" stroke-width="16"/>
<line x1="932" y1="340" x2="932" y2="268.625" stroke="#2F6E4D" stroke-width="16"/>
<line x1="787.889" y1="130" x2="787.889" y2="42" stroke="#2F6E4D" stroke-width="16"/>
<line x1="858.097" y1="199.48" x2="858.097" y2="42.2305" stroke="#2F6E4D" stroke-width="16"/>
<line x1="889.275" y1="170.483" x2="889.275" y2="42.2305" stroke="#2F6E4D" stroke-width="16"/>
<line x1="887.966" y1="165.677" x2="887.966" y2="43" stroke="#2F6E4D" stroke-width="16"/>
<line x1="932" y1="640" x2="932" y2="705.82" stroke="#2F6E4D" stroke-width="16"/>
<line x1="892.045" y1="697.589" x2="937.77" y2="697.589" stroke="#2F6E4D" stroke-width="16"/>
<line x1="894.275" y1="742.854" x2="940" y2="742.854" stroke="#2F6E4D" stroke-width="16"/>
<line x1="880.007" y1="813.909" x2="938" y2="813.909" stroke="#2F6E4D" stroke-width="16"/>
<line x1="810" y1="932" x2="865" y2="932" stroke="#2F6E4D" stroke-width="16"/>
<line x1="879.777" y1="932" x2="937.77" y2="932" stroke="#2F6E4D" stroke-width="16"/>
<line x1="739" y1="932" x2="795" y2="932" stroke="#2F6E4D" stroke-width="16"/>
<line x1="696.007" y1="903.978" x2="754" y2="903.978" stroke="#2F6E4D" stroke-width="16"/>
<line x1="746" y1="896.12" x2="746" y2="940" stroke="#2F6E4D" stroke-width="16"/>
<line x1="788.52" y1="849.931" x2="788.52" y2="940" stroke="#2F6E4D" stroke-width="16"/>
<line x1="817.517" y1="879.954" x2="817.517" y2="940" stroke="#2F6E4D" stroke-width="16"/>
<line x1="857.665" y1="879.954" x2="857.665" y2="940" stroke="#2F6E4D" stroke-width="16"/>
<line x1="882.201" y1="879.954" x2="882.201" y2="940" stroke="#2F6E4D" stroke-width="16"/>
<line x1="930.156" y1="806.051" x2="930.156" y2="866.097" stroke="#2F6E4D" stroke-width="16"/>
<line x1="932" y1="735.843" x2="932" y2="795.889" stroke="#2F6E4D" stroke-width="16"/>
<line x1="900.045" y1="690.577" x2="900.045" y2="750.624" stroke="#2F6E4D" stroke-width="16"/>
<line x1="887.777" y1="807.206" x2="887.777" y2="879.954" stroke="#2F6E4D" stroke-width="16"/>
<line x1="858" y1="779.877" x2="858" y2="882.956" stroke="#2F6E4D" stroke-width="16"/>
<line x1="932" y1="879.954" x2="932" y2="940" stroke="#2F6E4D" stroke-width="16"/>
<line x1="704" y1="896.12" x2="704" y2="940" stroke="#2F6E4D" stroke-width="16"/>
<line x1="640" y1="932" x2="711.375" y2="932" stroke="#2F6E4D" stroke-width="16"/>
<line x1="850" y1="787.889" x2="938" y2="787.889" stroke="#2F6E4D" stroke-width="16"/>
<line x1="780.52" y1="858.097" x2="937.77" y2="858.097" stroke="#2F6E4D" stroke-width="16"/>
<line x1="809.517" y1="889.275" x2="937.77" y2="889.275" stroke="#2F6E4D" stroke-width="16"/>
<line x1="814.323" y1="887.966" x2="937" y2="887.966" stroke="#2F6E4D" stroke-width="16"/>
<line x1="340" y1="48" x2="640" y2="48" stroke="#2F6E4D" stroke-width="16"/>
</svg>
